<?xml version="1.0" standalone="yes"?>
<!-- SVG graphic -->
<svg xmlns='http://www.w3.org/2000/svg' xmlns:xlink='http://www.w3.org/1999/xlink'
width="70px" height="70px" preserveAspectRatio="xMinYMin meet" viewBox="0 0 70 70" version="1.1">
<rect x="5" y="0" width="2.5" height="2.5" fill="rgb(101,0,153)" tooltip="enable"><title>(1,0 181)</title></rect><rect x="10" y="0" width="2.5" height="2.5" fill="rgb(90,0,164)" tooltip="enable"><title>(2,0 161)</title></rect><rect x="15" y="0" width="2.5" height="2.5" fill="rgb(248,0,6)" tooltip="enable"><title>(3,0 443)</title></rect><rect x="20" y="0" width="2.5" height="2.5" fill="rgb(116,0,138)" tooltip="enable"><title>(4,0 208)</title></rect><rect x="25" y="0" width="2.5" height="2.5" fill="rgb(51,0,203)" tooltip="enable"><title>(5,0 92)</title></rect><rect x="30" y="0" width="2.5" height="2.5" fill="rgb(11,0,243)" tooltip="enable"><title>(6,0 21)</title></rect><rect x="35" y="0" width="2.5" height="2.5" fill="rgb(146,0,108)" tooltip="enable"><title>(7,0 261)</title></rect><rect x="45" y="0" width="2.5" height="2.5" fill="rgb(202,0,52)" tooltip="enable"><title>(9,0 362)</title></rect><rect x="50" y="0" width="2.5" height="2.5" fill="rgb(53,0,201)" tooltip="enable"><title>(10,0 96)</title></rect><rect x="10" y="5" width="2.5" height="2.5" fill="rgb(172,0,82)" tooltip="enable"><title>(2,1 308)</title></rect><rect x="15" y="5" width="2.5" height="2.5" fill="rgb(140,0,114)" tooltip="enable"><title>(3,1 251)</title></rect><rect x="20" y="5" width="2.5" height="2.5" fill="rgb(93,0,161)" tooltip="enable"><title>(4,1 166)</title></rect><rect x="25" y="5" width="2.5" height="2.5" fill="rgb(30,0,224)" tooltip="enable"><title>(5,1 55)</title></rect><rect x="35" y="5" width="2.5" height="2.5" fill="rgb(29,0,225)" tooltip="enable"><title>(7,1 52)</title></rect><rect x="45" y="5" width="2.5" height="2.5" fill="rgb(108,0,146)" tooltip="enable"><title>(9,1 193)</title></rect><rect x="50" y="5" width="2.5" height="2.5" fill="rgb(49,0,205)" tooltip="enable"><title>(10,1 88)</title></rect><rect x="15" y="10" width="2.5" height="2.5" fill="rgb(98,0,156)" tooltip="enable"><title>(3,2 175)</title></rect><rect x="20" y="10" width="2.5" height="2.5" fill="rgb(46,0,208)" tooltip="enable"><title>(4,2 83)</title></rect><rect x="25" y="10" width="2.5" height="2.5" fill="rgb(25,0,229)" tooltip="enable"><title>(5,2 45)</title></rect><rect x="35" y="10" width="2.5" height="2.5" fill="rgb(39,0,215)" tooltip="enable"><title>(7,2 71)</title></rect><rect x="45" y="10" width="2.5" height="2.5" fill="rgb(70,0,184)" tooltip="enable"><title>(9,2 125)</title></rect><rect x="50" y="10" width="2.5" height="2.5" fill="rgb(36,0,218)" tooltip="enable"><title>(10,2 65)</title></rect><rect x="20" y="15" width="2.5" height="2.5" fill="rgb(178,0,76)" tooltip="enable"><title>(4,3 319)</title></rect><rect x="25" y="15" width="2.5" height="2.5" fill="rgb(61,0,193)" tooltip="enable"><title>(5,3 110)</title></rect><rect x="35" y="15" width="2.5" height="2.5" fill="rgb(81,0,173)" tooltip="enable"><title>(7,3 145)</title></rect><rect x="40" y="15" width="2.5" height="2.5" fill="rgb(10,0,244)" tooltip="enable"><title>(8,3 18)</title></rect><rect x="45" y="15" width="2.5" height="2.5" fill="rgb(255,0,0)" tooltip="enable"><title>(9,3 455)</title></rect><rect x="50" y="15" width="2.5" height="2.5" fill="rgb(74,0,180)" tooltip="enable"><title>(10,3 133)</title></rect><rect x="25" y="20" width="2.5" height="2.5" fill="rgb(118,0,136)" tooltip="enable"><title>(5,4 212)</title></rect><rect x="30" y="20" width="2.5" height="2.5" fill="rgb(21,0,233)" tooltip="enable"><title>(6,4 38)</title></rect><rect x="35" y="20" width="2.5" height="2.5" fill="rgb(70,0,184)" tooltip="enable"><title>(7,4 126)</title></rect><rect x="45" y="20" width="2.5" height="2.5" fill="rgb(112,0,142)" tooltip="enable"><title>(9,4 200)</title></rect><rect x="50" y="20" width="2.5" height="2.5" fill="rgb(39,0,215)" tooltip="enable"><title>(10,4 71)</title></rect><rect x="30" y="25" width="2.5" height="2.5" fill="rgb(141,0,113)" tooltip="enable"><title>(6,5 252)</title></rect><rect x="35" y="25" width="2.5" height="2.5" fill="rgb(38,0,216)" tooltip="enable"><title>(7,5 69)</title></rect><rect x="45" y="25" width="2.5" height="2.5" fill="rgb(27,0,227)" tooltip="enable"><title>(9,5 49)</title></rect><rect x="50" y="25" width="2.5" height="2.5" fill="rgb(14,0,240)" tooltip="enable"><title>(10,5 26)</title></rect><rect x="35" y="30" width="2.5" height="2.5" fill="rgb(25,0,229)" tooltip="enable"><title>(7,6 45)</title></rect><rect x="45" y="30" width="2.5" height="2.5" fill="rgb(11,0,243)" tooltip="enable"><title>(9,6 21)</title></rect><rect x="40" y="35" width="2.5" height="2.5" fill="rgb(53,0,201)" tooltip="enable"><title>(8,7 95)</title></rect><rect x="45" y="35" width="2.5" height="2.5" fill="rgb(89,0,165)" tooltip="enable"><title>(9,7 159)</title></rect><rect x="50" y="35" width="2.5" height="2.5" fill="rgb(19,0,235)" tooltip="enable"><title>(10,7 34)</title></rect><rect x="50" y="40" width="2.5" height="2.5" fill="rgb(14,0,240)" tooltip="enable"><title>(10,8 25)</title></rect><rect x="50" y="45" width="2.5" height="2.5" fill="rgb(188,0,66)" tooltip="enable"><title>(10,9 337)</title></rect><text x="60" y="5" font-size="5" fill="black">0</text>
<text x="60" y="50" font-size="5" fill="black">11</text>
<polyline points="60,10,60,45" stroke="black" stroke-width="1" fill="none"/>
<text x="5" y="60" font-size="5" fill="black">0</text>
<text x="50" y="60" font-size="5" fill="black">11</text>
<polyline points="10,60,45,60" stroke="black" stroke-width="1" fill="none"/>
</svg>