<?xml version="1.0" standalone="yes"?>
<!-- SVG graphic -->
<svg xmlns='http://www.w3.org/2000/svg' xmlns:xlink='http://www.w3.org/1999/xlink'
width="70px" height="70px" preserveAspectRatio="xMinYMin meet" viewBox="0 0 70 70" version="1.1">
<rect x="5" y="0" width="2.5" height="2.5" fill="rgb(104,0,150)" tooltip="enable"><title>(1,0 189)</title></rect><rect x="10" y="0" width="2.5" height="2.5" fill="rgb(89,0,165)" tooltip="enable"><title>(2,0 162)</title></rect><rect x="15" y="0" width="2.5" height="2.5" fill="rgb(241,0,13)" tooltip="enable"><title>(3,0 436)</title></rect><rect x="20" y="0" width="2.5" height="2.5" fill="rgb(121,0,133)" tooltip="enable"><title>(4,0 219)</title></rect><rect x="25" y="0" width="2.5" height="2.5" fill="rgb(48,0,206)" tooltip="enable"><title>(5,0 88)</title></rect><rect x="35" y="0" width="2.5" height="2.5" fill="rgb(140,0,114)" tooltip="enable"><title>(7,0 254)</title></rect><rect x="40" y="0" width="2.5" height="2.5" fill="rgb(9,0,245)" tooltip="enable"><title>(8,0 18)</title></rect><rect x="45" y="0" width="2.5" height="2.5" fill="rgb(195,0,59)" tooltip="enable"><title>(9,0 353)</title></rect><rect x="50" y="0" width="2.5" height="2.5" fill="rgb(41,0,213)" tooltip="enable"><title>(10,0 74)</title></rect><rect x="10" y="5" width="2.5" height="2.5" fill="rgb(180,0,74)" tooltip="enable"><title>(2,1 325)</title></rect><rect x="15" y="5" width="2.5" height="2.5" fill="rgb(140,0,114)" tooltip="enable"><title>(3,1 253)</title></rect><rect x="20" y="5" width="2.5" height="2.5" fill="rgb(102,0,152)" tooltip="enable"><title>(4,1 185)</title></rect><rect x="25" y="5" width="2.5" height="2.5" fill="rgb(31,0,223)" tooltip="enable"><title>(5,1 56)</title></rect><rect x="35" y="5" width="2.5" height="2.5" fill="rgb(27,0,227)" tooltip="enable"><title>(7,1 50)</title></rect><rect x="45" y="5" width="2.5" height="2.5" fill="rgb(106,0,148)" tooltip="enable"><title>(9,1 193)</title></rect><rect x="50" y="5" width="2.5" height="2.5" fill="rgb(45,0,209)" tooltip="enable"><title>(10,1 82)</title></rect><rect x="15" y="10" width="2.5" height="2.5" fill="rgb(101,0,153)" tooltip="enable"><title>(3,2 184)</title></rect><rect x="20" y="10" width="2.5" height="2.5" fill="rgb(43,0,211)" tooltip="enable"><title>(4,2 78)</title></rect><rect x="25" y="10" width="2.5" height="2.5" fill="rgb(26,0,228)" tooltip="enable"><title>(5,2 47)</title></rect><rect x="35" y="10" width="2.5" height="2.5" fill="rgb(31,0,223)" tooltip="enable"><title>(7,2 56)</title></rect><rect x="45" y="10" width="2.5" height="2.5" fill="rgb(73,0,181)" tooltip="enable"><title>(9,2 133)</title></rect><rect x="50" y="10" width="2.5" height="2.5" fill="rgb(38,0,216)" tooltip="enable"><title>(10,2 69)</title></rect><rect x="20" y="15" width="2.5" height="2.5" fill="rgb(179,0,75)" tooltip="enable"><title>(4,3 324)</title></rect><rect x="25" y="15" width="2.5" height="2.5" fill="rgb(54,0,200)" tooltip="enable"><title>(5,3 99)</title></rect><rect x="35" y="15" width="2.5" height="2.5" fill="rgb(78,0,176)" tooltip="enable"><title>(7,3 142)</title></rect><rect x="40" y="15" width="2.5" height="2.5" fill="rgb(11,0,243)" tooltip="enable"><title>(8,3 20)</title></rect><rect x="45" y="15" width="2.5" height="2.5" fill="rgb(255,0,0)" tooltip="enable"><title>(9,3 460)</title></rect><rect x="50" y="15" width="2.5" height="2.5" fill="rgb(73,0,181)" tooltip="enable"><title>(10,3 133)</title></rect><rect x="25" y="20" width="2.5" height="2.5" fill="rgb(116,0,138)" tooltip="enable"><title>(5,4 210)</title></rect><rect x="30" y="20" width="2.5" height="2.5" fill="rgb(18,0,236)" tooltip="enable"><title>(6,4 34)</title></rect><rect x="35" y="20" width="2.5" height="2.5" fill="rgb(69,0,185)" tooltip="enable"><title>(7,4 126)</title></rect><rect x="45" y="20" width="2.5" height="2.5" fill="rgb(110,0,144)" tooltip="enable"><title>(9,4 200)</title></rect><rect x="50" y="20" width="2.5" height="2.5" fill="rgb(34,0,220)" tooltip="enable"><title>(10,4 63)</title></rect><rect x="30" y="25" width="2.5" height="2.5" fill="rgb(125,0,129)" tooltip="enable"><title>(6,5 226)</title></rect><rect x="35" y="25" width="2.5" height="2.5" fill="rgb(39,0,215)" tooltip="enable"><title>(7,5 71)</title></rect><rect x="45" y="25" width="2.5" height="2.5" fill="rgb(26,0,228)" tooltip="enable"><title>(9,5 48)</title></rect><rect x="50" y="25" width="2.5" height="2.5" fill="rgb(12,0,242)" tooltip="enable"><title>(10,5 23)</title></rect><rect x="35" y="30" width="2.5" height="2.5" fill="rgb(24,0,230)" tooltip="enable"><title>(7,6 44)</title></rect><rect x="45" y="30" width="2.5" height="2.5" fill="rgb(11,0,243)" tooltip="enable"><title>(9,6 21)</title></rect><rect x="40" y="35" width="2.5" height="2.5" fill="rgb(50,0,204)" tooltip="enable"><title>(8,7 91)</title></rect><rect x="45" y="35" width="2.5" height="2.5" fill="rgb(78,0,176)" tooltip="enable"><title>(9,7 141)</title></rect><rect x="50" y="35" width="2.5" height="2.5" fill="rgb(16,0,238)" tooltip="enable"><title>(10,7 29)</title></rect><rect x="45" y="40" width="2.5" height="2.5" fill="rgb(12,0,242)" tooltip="enable"><title>(9,8 22)</title></rect><rect x="50" y="45" width="2.5" height="2.5" fill="rgb(189,0,65)" tooltip="enable"><title>(10,9 342)</title></rect><text x="60" y="5" font-size="5" fill="black">0</text>
<text x="60" y="50" font-size="5" fill="black">11</text>
<polyline points="60,10,60,45" stroke="black" stroke-width="1" fill="none"/>
<text x="5" y="60" font-size="5" fill="black">0</text>
<text x="50" y="60" font-size="5" fill="black">11</text>
<polyline points="10,60,45,60" stroke="black" stroke-width="1" fill="none"/>
</svg>