<?xml version="1.0" standalone="yes"?>
<!-- SVG graphic -->
<svg xmlns='http://www.w3.org/2000/svg' xmlns:xlink='http://www.w3.org/1999/xlink'
width="70px" height="70px" preserveAspectRatio="xMinYMin meet" viewBox="0 0 70 70" version="1.1">
<rect x="5" y="0" width="2.5" height="2.5" fill="rgb(112,0,142)" tooltip="enable"><title>(1,0 265)</title></rect><rect x="10" y="0" width="2.5" height="2.5" fill="rgb(104,0,150)" tooltip="enable"><title>(2,0 245)</title></rect><rect x="15" y="0" width="2.5" height="2.5" fill="rgb(243,0,11)" tooltip="enable"><title>(3,0 573)</title></rect><rect x="20" y="0" width="2.5" height="2.5" fill="rgb(122,0,132)" tooltip="enable"><title>(4,0 288)</title></rect><rect x="25" y="0" width="2.5" height="2.5" fill="rgb(68,0,186)" tooltip="enable"><title>(5,0 160)</title></rect><rect x="30" y="0" width="2.5" height="2.5" fill="rgb(26,0,228)" tooltip="enable"><title>(6,0 62)</title></rect><rect x="35" y="0" width="2.5" height="2.5" fill="rgb(164,0,90)" tooltip="enable"><title>(7,0 386)</title></rect><rect x="40" y="0" width="2.5" height="2.5" fill="rgb(25,0,229)" tooltip="enable"><title>(8,0 61)</title></rect><rect x="45" y="0" width="2.5" height="2.5" fill="rgb(214,0,40)" tooltip="enable"><title>(9,0 503)</title></rect><rect x="50" y="0" width="2.5" height="2.5" fill="rgb(74,0,180)" tooltip="enable"><title>(10,0 176)</title></rect><rect x="10" y="5" width="2.5" height="2.5" fill="rgb(191,0,63)" tooltip="enable"><title>(2,1 449)</title></rect><rect x="15" y="5" width="2.5" height="2.5" fill="rgb(151,0,103)" tooltip="enable"><title>(3,1 357)</title></rect><rect x="20" y="5" width="2.5" height="2.5" fill="rgb(111,0,143)" tooltip="enable"><title>(4,1 263)</title></rect><rect x="25" y="5" width="2.5" height="2.5" fill="rgb(62,0,192)" tooltip="enable"><title>(5,1 146)</title></rect><rect x="30" y="5" width="2.5" height="2.5" fill="rgb(27,0,227)" tooltip="enable"><title>(6,1 64)</title></rect><rect x="35" y="5" width="2.5" height="2.5" fill="rgb(61,0,193)" tooltip="enable"><title>(7,1 145)</title></rect><rect x="40" y="5" width="2.5" height="2.5" fill="rgb(17,0,237)" tooltip="enable"><title>(8,1 41)</title></rect><rect x="45" y="5" width="2.5" height="2.5" fill="rgb(117,0,137)" tooltip="enable"><title>(9,1 275)</title></rect><rect x="50" y="5" width="2.5" height="2.5" fill="rgb(68,0,186)" tooltip="enable"><title>(10,1 162)</title></rect><rect x="15" y="10" width="2.5" height="2.5" fill="rgb(117,0,137)" tooltip="enable"><title>(3,2 277)</title></rect><rect x="20" y="10" width="2.5" height="2.5" fill="rgb(72,0,182)" tooltip="enable"><title>(4,2 170)</title></rect><rect x="25" y="10" width="2.5" height="2.5" fill="rgb(52,0,202)" tooltip="enable"><title>(5,2 123)</title></rect><rect x="30" y="10" width="2.5" height="2.5" fill="rgb(27,0,227)" tooltip="enable"><title>(6,2 64)</title></rect><rect x="35" y="10" width="2.5" height="2.5" fill="rgb(59,0,195)" tooltip="enable"><title>(7,2 139)</title></rect><rect x="40" y="10" width="2.5" height="2.5" fill="rgb(19,0,235)" tooltip="enable"><title>(8,2 46)</title></rect><rect x="45" y="10" width="2.5" height="2.5" fill="rgb(92,0,162)" tooltip="enable"><title>(9,2 217)</title></rect><rect x="50" y="10" width="2.5" height="2.5" fill="rgb(62,0,192)" tooltip="enable"><title>(10,2 146)</title></rect><rect x="20" y="15" width="2.5" height="2.5" fill="rgb(183,0,71)" tooltip="enable"><title>(4,3 430)</title></rect><rect x="25" y="15" width="2.5" height="2.5" fill="rgb(83,0,171)" tooltip="enable"><title>(5,3 195)</title></rect><rect x="30" y="15" width="2.5" height="2.5" fill="rgb(27,0,227)" tooltip="enable"><title>(6,3 64)</title></rect><rect x="35" y="15" width="2.5" height="2.5" fill="rgb(92,0,162)" tooltip="enable"><title>(7,3 218)</title></rect><rect x="40" y="15" width="2.5" height="2.5" fill="rgb(26,0,228)" tooltip="enable"><title>(8,3 62)</title></rect><rect x="45" y="15" width="2.5" height="2.5" fill="rgb(255,0,0)" tooltip="enable"><title>(9,3 599)</title></rect><rect x="50" y="15" width="2.5" height="2.5" fill="rgb(93,0,161)" tooltip="enable"><title>(10,3 220)</title></rect><rect x="25" y="20" width="2.5" height="2.5" fill="rgb(151,0,103)" tooltip="enable"><title>(5,4 356)</title></rect><rect x="30" y="20" width="2.5" height="2.5" fill="rgb(34,0,220)" tooltip="enable"><title>(6,4 81)</title></rect><rect x="35" y="20" width="2.5" height="2.5" fill="rgb(86,0,168)" tooltip="enable"><title>(7,4 204)</title></rect><rect x="40" y="20" width="2.5" height="2.5" fill="rgb(17,0,237)" tooltip="enable"><title>(8,4 40)</title></rect><rect x="45" y="20" width="2.5" height="2.5" fill="rgb(124,0,130)" tooltip="enable"><title>(9,4 292)</title></rect><rect x="50" y="20" width="2.5" height="2.5" fill="rgb(60,0,194)" tooltip="enable"><title>(10,4 142)</title></rect><rect x="30" y="25" width="2.5" height="2.5" fill="rgb(134,0,120)" tooltip="enable"><title>(6,5 317)</title></rect><rect x="35" y="25" width="2.5" height="2.5" fill="rgb(54,0,200)" tooltip="enable"><title>(7,5 127)</title></rect><rect x="40" y="25" width="2.5" height="2.5" fill="rgb(17,0,237)" tooltip="enable"><title>(8,5 40)</title></rect><rect x="45" y="25" width="2.5" height="2.5" fill="rgb(58,0,196)" tooltip="enable"><title>(9,5 138)</title></rect><rect x="50" y="25" width="2.5" height="2.5" fill="rgb(25,0,229)" tooltip="enable"><title>(10,5 61)</title></rect><rect x="35" y="30" width="2.5" height="2.5" fill="rgb(37,0,217)" tooltip="enable"><title>(7,6 89)</title></rect><rect x="40" y="30" width="2.5" height="2.5" fill="rgb(17,0,237)" tooltip="enable"><title>(8,6 41)</title></rect><rect x="45" y="30" width="2.5" height="2.5" fill="rgb(27,0,227)" tooltip="enable"><title>(9,6 64)</title></rect><rect x="50" y="30" width="2.5" height="2.5" fill="rgb(19,0,235)" tooltip="enable"><title>(10,6 45)</title></rect><rect x="40" y="35" width="2.5" height="2.5" fill="rgb(64,0,190)" tooltip="enable"><title>(8,7 151)</title></rect><rect x="45" y="35" width="2.5" height="2.5" fill="rgb(108,0,146)" tooltip="enable"><title>(9,7 254)</title></rect><rect x="50" y="35" width="2.5" height="2.5" fill="rgb(39,0,215)" tooltip="enable"><title>(10,7 92)</title></rect><rect x="45" y="40" width="2.5" height="2.5" fill="rgb(28,0,226)" tooltip="enable"><title>(9,8 66)</title></rect><rect x="50" y="40" width="2.5" height="2.5" fill="rgb(26,0,228)" tooltip="enable"><title>(10,8 63)</title></rect><rect x="50" y="45" width="2.5" height="2.5" fill="rgb(209,0,45)" tooltip="enable"><title>(10,9 492)</title></rect><text x="60" y="5" font-size="5" fill="black">0</text>
<text x="60" y="50" font-size="5" fill="black">11</text>
<polyline points="60,10,60,45" stroke="black" stroke-width="1" fill="none"/>
<text x="5" y="60" font-size="5" fill="black">0</text>
<text x="50" y="60" font-size="5" fill="black">11</text>
<polyline points="10,60,45,60" stroke="black" stroke-width="1" fill="none"/>
</svg>