<?xml version="1.0" standalone="yes"?>
<!-- SVG graphic -->
<svg xmlns='http://www.w3.org/2000/svg' xmlns:xlink='http://www.w3.org/1999/xlink'
width="70px" height="70px" preserveAspectRatio="xMinYMin meet" viewBox="0 0 70 70" version="1.1">
<rect x="5" y="0" width="2.5" height="2.5" fill="rgb(114,0,140)" tooltip="enable"><title>(1,0 268)</title></rect><rect x="10" y="0" width="2.5" height="2.5" fill="rgb(104,0,150)" tooltip="enable"><title>(2,0 246)</title></rect><rect x="15" y="0" width="2.5" height="2.5" fill="rgb(241,0,13)" tooltip="enable"><title>(3,0 567)</title></rect><rect x="20" y="0" width="2.5" height="2.5" fill="rgb(125,0,129)" tooltip="enable"><title>(4,0 294)</title></rect><rect x="25" y="0" width="2.5" height="2.5" fill="rgb(67,0,187)" tooltip="enable"><title>(5,0 158)</title></rect><rect x="30" y="0" width="2.5" height="2.5" fill="rgb(28,0,226)" tooltip="enable"><title>(6,0 67)</title></rect><rect x="35" y="0" width="2.5" height="2.5" fill="rgb(166,0,88)" tooltip="enable"><title>(7,0 391)</title></rect><rect x="40" y="0" width="2.5" height="2.5" fill="rgb(25,0,229)" tooltip="enable"><title>(8,0 60)</title></rect><rect x="45" y="0" width="2.5" height="2.5" fill="rgb(213,0,41)" tooltip="enable"><title>(9,0 502)</title></rect><rect x="50" y="0" width="2.5" height="2.5" fill="rgb(73,0,181)" tooltip="enable"><title>(10,0 172)</title></rect><rect x="10" y="5" width="2.5" height="2.5" fill="rgb(194,0,60)" tooltip="enable"><title>(2,1 456)</title></rect><rect x="15" y="5" width="2.5" height="2.5" fill="rgb(151,0,103)" tooltip="enable"><title>(3,1 356)</title></rect><rect x="20" y="5" width="2.5" height="2.5" fill="rgb(112,0,142)" tooltip="enable"><title>(4,1 265)</title></rect><rect x="25" y="5" width="2.5" height="2.5" fill="rgb(63,0,191)" tooltip="enable"><title>(5,1 148)</title></rect><rect x="30" y="5" width="2.5" height="2.5" fill="rgb(26,0,228)" tooltip="enable"><title>(6,1 63)</title></rect><rect x="35" y="5" width="2.5" height="2.5" fill="rgb(60,0,194)" tooltip="enable"><title>(7,1 142)</title></rect><rect x="40" y="5" width="2.5" height="2.5" fill="rgb(18,0,236)" tooltip="enable"><title>(8,1 43)</title></rect><rect x="45" y="5" width="2.5" height="2.5" fill="rgb(117,0,137)" tooltip="enable"><title>(9,1 277)</title></rect><rect x="50" y="5" width="2.5" height="2.5" fill="rgb(67,0,187)" tooltip="enable"><title>(10,1 159)</title></rect><rect x="15" y="10" width="2.5" height="2.5" fill="rgb(118,0,136)" tooltip="enable"><title>(3,2 278)</title></rect><rect x="20" y="10" width="2.5" height="2.5" fill="rgb(73,0,181)" tooltip="enable"><title>(4,2 172)</title></rect><rect x="25" y="10" width="2.5" height="2.5" fill="rgb(49,0,205)" tooltip="enable"><title>(5,2 117)</title></rect><rect x="30" y="10" width="2.5" height="2.5" fill="rgb(27,0,227)" tooltip="enable"><title>(6,2 64)</title></rect><rect x="35" y="10" width="2.5" height="2.5" fill="rgb(60,0,194)" tooltip="enable"><title>(7,2 143)</title></rect><rect x="40" y="10" width="2.5" height="2.5" fill="rgb(18,0,236)" tooltip="enable"><title>(8,2 44)</title></rect><rect x="45" y="10" width="2.5" height="2.5" fill="rgb(90,0,164)" tooltip="enable"><title>(9,2 213)</title></rect><rect x="50" y="10" width="2.5" height="2.5" fill="rgb(59,0,195)" tooltip="enable"><title>(10,2 140)</title></rect><rect x="20" y="15" width="2.5" height="2.5" fill="rgb(180,0,74)" tooltip="enable"><title>(4,3 425)</title></rect><rect x="25" y="15" width="2.5" height="2.5" fill="rgb(80,0,174)" tooltip="enable"><title>(5,3 189)</title></rect><rect x="30" y="15" width="2.5" height="2.5" fill="rgb(25,0,229)" tooltip="enable"><title>(6,3 60)</title></rect><rect x="35" y="15" width="2.5" height="2.5" fill="rgb(94,0,160)" tooltip="enable"><title>(7,3 223)</title></rect><rect x="40" y="15" width="2.5" height="2.5" fill="rgb(27,0,227)" tooltip="enable"><title>(8,3 64)</title></rect><rect x="45" y="15" width="2.5" height="2.5" fill="rgb(255,0,0)" tooltip="enable"><title>(9,3 599)</title></rect><rect x="50" y="15" width="2.5" height="2.5" fill="rgb(98,0,156)" tooltip="enable"><title>(10,3 232)</title></rect><rect x="25" y="20" width="2.5" height="2.5" fill="rgb(151,0,103)" tooltip="enable"><title>(5,4 355)</title></rect><rect x="30" y="20" width="2.5" height="2.5" fill="rgb(34,0,220)" tooltip="enable"><title>(6,4 82)</title></rect><rect x="35" y="20" width="2.5" height="2.5" fill="rgb(83,0,171)" tooltip="enable"><title>(7,4 195)</title></rect><rect x="40" y="20" width="2.5" height="2.5" fill="rgb(16,0,238)" tooltip="enable"><title>(8,4 38)</title></rect><rect x="45" y="20" width="2.5" height="2.5" fill="rgb(125,0,129)" tooltip="enable"><title>(9,4 294)</title></rect><rect x="50" y="20" width="2.5" height="2.5" fill="rgb(60,0,194)" tooltip="enable"><title>(10,4 142)</title></rect><rect x="30" y="25" width="2.5" height="2.5" fill="rgb(133,0,121)" tooltip="enable"><title>(6,5 314)</title></rect><rect x="35" y="25" width="2.5" height="2.5" fill="rgb(53,0,201)" tooltip="enable"><title>(7,5 125)</title></rect><rect x="40" y="25" width="2.5" height="2.5" fill="rgb(15,0,239)" tooltip="enable"><title>(8,5 36)</title></rect><rect x="45" y="25" width="2.5" height="2.5" fill="rgb(55,0,199)" tooltip="enable"><title>(9,5 130)</title></rect><rect x="50" y="25" width="2.5" height="2.5" fill="rgb(28,0,226)" tooltip="enable"><title>(10,5 66)</title></rect><rect x="35" y="30" width="2.5" height="2.5" fill="rgb(37,0,217)" tooltip="enable"><title>(7,6 88)</title></rect><rect x="40" y="30" width="2.5" height="2.5" fill="rgb(17,0,237)" tooltip="enable"><title>(8,6 40)</title></rect><rect x="45" y="30" width="2.5" height="2.5" fill="rgb(24,0,230)" tooltip="enable"><title>(9,6 58)</title></rect><rect x="50" y="30" width="2.5" height="2.5" fill="rgb(19,0,235)" tooltip="enable"><title>(10,6 45)</title></rect><rect x="40" y="35" width="2.5" height="2.5" fill="rgb(60,0,194)" tooltip="enable"><title>(8,7 143)</title></rect><rect x="45" y="35" width="2.5" height="2.5" fill="rgb(105,0,149)" tooltip="enable"><title>(9,7 247)</title></rect><rect x="50" y="35" width="2.5" height="2.5" fill="rgb(38,0,216)" tooltip="enable"><title>(10,7 91)</title></rect><rect x="45" y="40" width="2.5" height="2.5" fill="rgb(27,0,227)" tooltip="enable"><title>(9,8 64)</title></rect><rect x="50" y="40" width="2.5" height="2.5" fill="rgb(27,0,227)" tooltip="enable"><title>(10,8 64)</title></rect><rect x="50" y="45" width="2.5" height="2.5" fill="rgb(209,0,45)" tooltip="enable"><title>(10,9 493)</title></rect><text x="60" y="5" font-size="5" fill="black">0</text>
<text x="60" y="50" font-size="5" fill="black">11</text>
<polyline points="60,10,60,45" stroke="black" stroke-width="1" fill="none"/>
<text x="5" y="60" font-size="5" fill="black">0</text>
<text x="50" y="60" font-size="5" fill="black">11</text>
<polyline points="10,60,45,60" stroke="black" stroke-width="1" fill="none"/>
</svg>