ply
format ascii 1.0
comment Exported by Aspose.3D 22.1
element vertex 56
property float x
property float y
property float z
element face 108
property list uchar int vertex_index
end_header
50.9169 107.0753 12.379
49.0335 -0.5101 14.2629
49.0211 -1.2173 -26.379
50.9045 106.3681 -28.2629
-20.3284 1.1973 43
-49.0708 1.1973 14.2629
-49.0831 0.4902 -26.379
-20.3583 -0.5099 -55.1161
20.3086 0.49 43
20.2787 -1.2172 -55.1161
-15.4247 41.343 -55.8503
-47.1874 108.7827 12.379
-18.445 108.7827 41.1161
-18.4749 107.0755 -57
-47.1998 108.0756 -28.2629
22.192 108.0754 41.1161
22.1621 106.3682 -57
0.5486 32.7461 -55.7046
-11.0962 36.8015 -55.7721
6.7246 33.6233 -55.7219
12.3282 36.3938 -55.7721
-5.5929 33.8377 -55.7219
16.8131 40.7819 -55.8503
-10.5133 70.0965 -20.0191
19.7414 46.3594 -55.9488
-4.9097 72.867 -20.0693
20.8222 52.5824 -56.0581
-14.9982 65.7084 -19.9409
19.9599 58.8393 -56.1673
7.3967 72.0206 -56.3942
1.2553 73.1175 -56.4116
-17.9265 60.1309 -19.8424
17.2285 64.5153 -56.2658
-4.9207 72.2349 -56.3942
12.9 69.0568 -56.344
-19.0126 53.908 -19.7331
-10.5244 69.4644 -56.344
-18.145 47.651 -19.6238
-15.0092 65.0763 -56.2658
-17.9375 59.4989 -56.1673
-19.0237 53.2759 -56.0581
6.7356 34.2554 -19.3969
0.5597 33.3782 -19.3797
-5.5818 34.4698 -19.3969
-11.0851 37.4336 -19.4471
-15.4136 41.975 -19.5253
16.8241 41.414 -19.5253
12.3393 37.0259 -19.4471
-18.156 47.019 -55.9488
20.8333 53.2145 -19.7331
19.7524 46.9914 -19.6238
1.2664 73.7496 -20.0866
7.4078 72.6526 -20.0693
12.9111 69.6888 -20.0191
17.2396 65.1473 -19.9409
19.9709 59.4713 -19.8424
3 0 1 2
3 0 2 3
3 7 4 5
3 7 5 6
3 4 7 8
3 1 8 7
3 9 2 7
3 1 7 2
3 11 12 13
3 11 13 14
3 12 15 13
3 15 0 13
3 16 13 0
3 16 0 3
3 5 11 14
3 5 14 6
3 18 7 10
3 22 9 20
3 11 4 12
3 21 7 18
3 11 5 4
3 26 9 24
3 22 24 9
3 27 38 23
3 8 15 4
3 12 4 15
3 8 1 0
3 8 0 15
3 3 2 9
3 3 9 16
3 31 38 27
3 25 33 30
3 17 42 41
3 17 41 19
3 23 36 25
3 33 25 36
3 19 41 47
3 19 47 20
3 36 23 38
3 30 16 29
3 31 39 38
3 39 31 35
3 39 35 40
3 43 44 42
3 44 45 42
3 41 42 45
3 46 47 45
3 41 45 47
3 40 35 37
3 40 37 48
3 37 45 48
3 34 29 16
3 33 13 30
3 36 13 33
3 38 13 36
3 39 13 38
3 16 30 13
3 46 45 50
3 49 50 45
3 49 45 37
3 49 37 35
3 49 35 31
3 49 31 27
3 49 27 23
3 49 23 25
3 49 25 51
3 49 51 52
3 49 52 53
3 49 53 54
3 49 54 55
3 13 39 40
3 48 7 40
3 48 10 7
3 13 40 7
3 17 7 21
3 19 9 17
3 20 9 19
3 7 17 9
3 16 9 26
3 16 26 28
3 16 28 32
3 16 32 34
3 7 14 13
3 44 43 21
3 6 14 7
3 21 43 42
3 46 22 20
3 46 20 47
3 50 24 22
3 50 22 46
3 10 48 45
3 44 18 45
3 10 45 18
3 18 44 21
3 42 17 21
3 52 29 53
3 29 52 30
3 51 30 52
3 24 50 49
3 24 49 26
3 25 30 51
3 26 49 28
3 55 28 49
3 28 55 32
3 54 32 55
3 53 34 32
3 53 32 54
3 29 34 53
