<?xml version="1.0" standalone="yes"?>
<!-- SVG graphic -->
<svg xmlns='http://www.w3.org/2000/svg' xmlns:xlink='http://www.w3.org/1999/xlink'
 version="1.1">
<rect x="0" y="1.52588e-05" width="6" height="200" stroke="black" stroke-width="1" fill="blue" tooltip="enable"><title>(0,2372)</title></rect><rect x="6" y="80.9444" width="6" height="119.056" stroke="black" stroke-width="1" fill="blue" tooltip="enable"><title>(0.0270371,1412)</title></rect><rect x="12" y="110.034" width="6" height="89.9663" stroke="black" stroke-width="1" fill="blue" tooltip="enable"><title>(0.0540743,1067)</title></rect><rect x="18" y="129.595" width="6" height="70.4047" stroke="black" stroke-width="1" fill="blue" tooltip="enable"><title>(0.0811114,835)</title></rect><rect x="24" y="144.182" width="6" height="55.8179" stroke="black" stroke-width="1" fill="blue" tooltip="enable"><title>(0.108149,662)</title></rect><rect x="30" y="156.155" width="6" height="43.8449" stroke="black" stroke-width="1" fill="blue" tooltip="enable"><title>(0.135186,520)</title></rect><rect x="36" y="161.72" width="6" height="38.2799" stroke="black" stroke-width="1" fill="blue" tooltip="enable"><title>(0.162223,454)</title></rect><rect x="42" y="167.622" width="6" height="32.3777" stroke="black" stroke-width="1" fill="blue" tooltip="enable"><title>(0.18926,384)</title></rect><rect x="48" y="177.656" width="6" height="22.344" stroke="black" stroke-width="1" fill="blue" tooltip="enable"><title>(0.216297,265)</title></rect><rect x="54" y="177.066" width="6" height="22.9342" stroke="black" stroke-width="1" fill="blue" tooltip="enable"><title>(0.243334,272)</title></rect><rect x="60" y="184.317" width="6" height="15.683" stroke="black" stroke-width="1" fill="blue" tooltip="enable"><title>(0.270371,186)</title></rect><rect x="66" y="187.605" width="6" height="12.3946" stroke="black" stroke-width="1" fill="blue" tooltip="enable"><title>(0.297409,147)</title></rect><rect x="72" y="187.69" width="6" height="12.3103" stroke="black" stroke-width="1" fill="blue" tooltip="enable"><title>(0.324446,146)</title></rect><rect x="78" y="190.135" width="6" height="9.86509" stroke="black" stroke-width="1" fill="blue" tooltip="enable"><title>(0.351483,117)</title></rect><rect x="84" y="189.966" width="6" height="10.0337" stroke="black" stroke-width="1" fill="blue" tooltip="enable"><title>(0.37852,119)</title></rect><rect x="90" y="191.737" width="6" height="8.26307" stroke="black" stroke-width="1" fill="blue" tooltip="enable"><title>(0.405557,98)</title></rect><rect x="96" y="193.676" width="6" height="6.32378" stroke="black" stroke-width="1" fill="blue" tooltip="enable"><title>(0.432594,75)</title></rect><rect x="102" y="194.519" width="6" height="5.48061" stroke="black" stroke-width="1" fill="blue" tooltip="enable"><title>(0.459632,65)</title></rect><rect x="108" y="194.351" width="6" height="5.64924" stroke="black" stroke-width="1" fill="blue" tooltip="enable"><title>(0.486669,67)</title></rect><rect x="114" y="195.531" width="6" height="4.4688" stroke="black" stroke-width="1" fill="blue" tooltip="enable"><title>(0.513706,53)</title></rect><rect x="120" y="196.29" width="6" height="3.70995" stroke="black" stroke-width="1" fill="blue" tooltip="enable"><title>(0.540743,44)</title></rect><rect x="126" y="195.784" width="6" height="4.21585" stroke="black" stroke-width="1" fill="blue" tooltip="enable"><title>(0.56778,50)</title></rect><rect x="132" y="196.543" width="6" height="3.457" stroke="black" stroke-width="1" fill="blue" tooltip="enable"><title>(0.594817,41)</title></rect><rect x="138" y="197.639" width="6" height="2.36088" stroke="black" stroke-width="1" fill="blue" tooltip="enable"><title>(0.621854,28)</title></rect><rect x="144" y="198.314" width="6" height="1.68634" stroke="black" stroke-width="1" fill="blue" tooltip="enable"><title>(0.648892,20)</title></rect><rect x="150" y="197.892" width="6" height="2.10793" stroke="black" stroke-width="1" fill="blue" tooltip="enable"><title>(0.675929,25)</title></rect><rect x="156" y="197.892" width="6" height="2.10793" stroke="black" stroke-width="1" fill="blue" tooltip="enable"><title>(0.702966,25)</title></rect><rect x="162" y="198.735" width="6" height="1.26476" stroke="black" stroke-width="1" fill="blue" tooltip="enable"><title>(0.730003,15)</title></rect><rect x="168" y="198.398" width="6" height="1.60202" stroke="black" stroke-width="1" fill="blue" tooltip="enable"><title>(0.75704,19)</title></rect><rect x="174" y="198.482" width="6" height="1.51771" stroke="black" stroke-width="1" fill="blue" tooltip="enable"><title>(0.784077,18)</title></rect><rect x="180" y="198.651" width="6" height="1.34907" stroke="black" stroke-width="1" fill="blue" tooltip="enable"><title>(0.811114,16)</title></rect><rect x="186" y="199.073" width="6" height="0.927487" stroke="black" stroke-width="1" fill="blue" tooltip="enable"><title>(0.838152,11)</title></rect><rect x="192" y="198.988" width="6" height="1.0118" stroke="black" stroke-width="1" fill="blue" tooltip="enable"><title>(0.865189,12)</title></rect><rect x="198" y="199.241" width="6" height="0.758853" stroke="black" stroke-width="1" fill="blue" tooltip="enable"><title>(0.892226,9)</title></rect><rect x="204" y="199.494" width="6" height="0.505902" stroke="black" stroke-width="1" fill="blue" tooltip="enable"><title>(0.919263,6)</title></rect><rect x="210" y="198.904" width="6" height="1.09612" stroke="black" stroke-width="1" fill="blue" tooltip="enable"><title>(0.9463,13)</title></rect><rect x="216" y="198.988" width="6" height="1.0118" stroke="black" stroke-width="1" fill="blue" tooltip="enable"><title>(0.973337,12)</title></rect><rect x="222" y="199.663" width="6" height="0.337268" stroke="black" stroke-width="1" fill="blue" tooltip="enable"><title>(1.00037,4)</title></rect><rect x="228" y="199.663" width="6" height="0.337268" stroke="black" stroke-width="1" fill="blue" tooltip="enable"><title>(1.02741,4)</title></rect><rect x="234" y="199.578" width="6" height="0.421585" stroke="black" stroke-width="1" fill="blue" tooltip="enable"><title>(1.05445,5)</title></rect><rect x="240" y="199.41" width="6" height="0.590219" stroke="black" stroke-width="1" fill="blue" tooltip="enable"><title>(1.08149,7)</title></rect><rect x="246" y="199.41" width="6" height="0.590219" stroke="black" stroke-width="1" fill="blue" tooltip="enable"><title>(1.10852,7)</title></rect><rect x="252" y="199.663" width="6" height="0.337268" stroke="black" stroke-width="1" fill="blue" tooltip="enable"><title>(1.13556,4)</title></rect><rect x="258" y="199.663" width="6" height="0.337268" stroke="black" stroke-width="1" fill="blue" tooltip="enable"><title>(1.1626,4)</title></rect><rect x="264" y="199.831" width="6" height="0.168634" stroke="black" stroke-width="1" fill="blue" tooltip="enable"><title>(1.18963,2)</title></rect><rect x="270" y="199.916" width="6" height="0.084317" stroke="black" stroke-width="1" fill="blue" tooltip="enable"><title>(1.21667,1)</title></rect><rect x="276" y="199.747" width="6" height="0.252951" stroke="black" stroke-width="1" fill="blue" tooltip="enable"><title>(1.24371,3)</title></rect><rect x="282" y="199.916" width="6" height="0.084317" stroke="black" stroke-width="1" fill="blue" tooltip="enable"><title>(1.27075,1)</title></rect><rect x="288" y="199.578" width="6" height="0.421585" stroke="black" stroke-width="1" fill="blue" tooltip="enable"><title>(1.29778,5)</title></rect><rect x="294" y="199.831" width="6" height="0.168634" stroke="black" stroke-width="1" fill="blue" tooltip="enable"><title>(1.32482,2)</title></rect><rect x="300" y="199.831" width="6" height="0.168634" stroke="black" stroke-width="1" fill="blue" tooltip="enable"><title>(1.35186,2)</title></rect><rect x="306" y="199.747" width="6" height="0.252951" stroke="black" stroke-width="1" fill="blue" tooltip="enable"><title>(1.37889,3)</title></rect><rect x="312" y="199.831" width="6" height="0.168634" stroke="black" stroke-width="1" fill="blue" tooltip="enable"><title>(1.40593,2)</title></rect><rect x="318" y="199.916" width="6" height="0.084317" stroke="black" stroke-width="1" fill="blue" tooltip="enable"><title>(1.43297,1)</title></rect><rect x="324" y="199.916" width="6" height="0.084317" stroke="black" stroke-width="1" fill="blue" tooltip="enable"><title>(1.46001,1)</title></rect><rect x="330" y="199.747" width="6" height="0.252951" stroke="black" stroke-width="1" fill="blue" tooltip="enable"><title>(1.48704,3)</title></rect><rect x="336" y="199.916" width="6" height="0.084317" stroke="black" stroke-width="1" fill="blue" tooltip="enable"><title>(1.51408,1)</title></rect><rect x="342" y="199.831" width="6" height="0.168634" stroke="black" stroke-width="1" fill="blue" tooltip="enable"><title>(1.54112,2)</title></rect><rect x="348" y="199.916" width="6" height="0.084317" stroke="black" stroke-width="1" fill="blue" tooltip="enable"><title>(1.56815,1)</title></rect><rect x="354" y="200" width="6" height="0" stroke="black" stroke-width="1" fill="blue" tooltip="enable"><title>(1.59519,0)</title></rect><rect x="360" y="200" width="6" height="0" stroke="black" stroke-width="1" fill="blue" tooltip="enable"><title>(1.62223,0)</title></rect><rect x="366" y="199.916" width="6" height="0.084317" stroke="black" stroke-width="1" fill="blue" tooltip="enable"><title>(1.64927,1)</title></rect><rect x="372" y="199.916" width="6" height="0.084317" stroke="black" stroke-width="1" fill="blue" tooltip="enable"><title>(1.6763,1)</title></rect><rect x="378" y="199.831" width="6" height="0.168634" stroke="black" stroke-width="1" fill="blue" tooltip="enable"><title>(1.70334,2)</title></rect><rect x="384" y="200" width="6" height="0" stroke="black" stroke-width="1" fill="blue" tooltip="enable"><title>(1.73038,0)</title></rect><rect x="390" y="199.831" width="6" height="0.168634" stroke="black" stroke-width="1" fill="blue" tooltip="enable"><title>(1.75741,2)</title></rect><rect x="396" y="200" width="6" height="0" stroke="black" stroke-width="1" fill="blue" tooltip="enable"><title>(1.78445,0)</title></rect><rect x="402" y="200" width="6" height="0" stroke="black" stroke-width="1" fill="blue" tooltip="enable"><title>(1.81149,0)</title></rect><rect x="408" y="199.916" width="6" height="0.084317" stroke="black" stroke-width="1" fill="blue" tooltip="enable"><title>(1.83853,1)</title></rect><rect x="414" y="200" width="6" height="0" stroke="black" stroke-width="1" fill="blue" tooltip="enable"><title>(1.86556,0)</title></rect><rect x="420" y="200" width="6" height="0" stroke="black" stroke-width="1" fill="blue" tooltip="enable"><title>(1.8926,0)</title></rect><rect x="426" y="200" width="6" height="0" stroke="black" stroke-width="1" fill="blue" tooltip="enable"><title>(1.91964,0)</title></rect><rect x="432" y="200" width="6" height="0" stroke="black" stroke-width="1" fill="blue" tooltip="enable"><title>(1.94667,0)</title></rect><rect x="438" y="199.831" width="6" height="0.168634" stroke="black" stroke-width="1" fill="blue" tooltip="enable"><title>(1.97371,2)</title></rect><rect x="444" y="200" width="6" height="0" stroke="black" stroke-width="1" fill="blue" tooltip="enable"><title>(2.00075,0)</title></rect><rect x="450" y="200" width="6" height="0" stroke="black" stroke-width="1" fill="blue" tooltip="enable"><title>(2.02779,0)</title></rect><rect x="456" y="200" width="6" height="0" stroke="black" stroke-width="1" fill="blue" tooltip="enable"><title>(2.05482,0)</title></rect><rect x="462" y="200" width="6" height="0" stroke="black" stroke-width="1" fill="blue" tooltip="enable"><title>(2.08186,0)</title></rect><rect x="468" y="199.916" width="6" height="0.084317" stroke="black" stroke-width="1" fill="blue" tooltip="enable"><title>(2.1089,1)</title></rect><rect x="474" y="199.916" width="6" height="0.084317" stroke="black" stroke-width="1" fill="blue" tooltip="enable"><title>(2.13593,1)</title></rect><rect x="480" y="199.916" width="6" height="0.084317" stroke="black" stroke-width="1" fill="blue" tooltip="enable"><title>(2.16297,1)</title></rect><rect x="486" y="200" width="6" height="0" stroke="black" stroke-width="1" fill="blue" tooltip="enable"><title>(2.19001,0)</title></rect><rect x="492" y="200" width="6" height="0" stroke="black" stroke-width="1" fill="blue" tooltip="enable"><title>(2.21705,0)</title></rect><rect x="498" y="200" width="6" height="0" stroke="black" stroke-width="1" fill="blue" tooltip="enable"><title>(2.24408,0)</title></rect><rect x="504" y="200" width="6" height="0" stroke="black" stroke-width="1" fill="blue" tooltip="enable"><title>(2.27112,0)</title></rect><rect x="510" y="200" width="6" height="0" stroke="black" stroke-width="1" fill="blue" tooltip="enable"><title>(2.29816,0)</title></rect><rect x="516" y="200" width="6" height="0" stroke="black" stroke-width="1" fill="blue" tooltip="enable"><title>(2.32519,0)</title></rect><rect x="522" y="199.916" width="6" height="0.084317" stroke="black" stroke-width="1" fill="blue" tooltip="enable"><title>(2.35223,1)</title></rect><rect x="528" y="200" width="6" height="0" stroke="black" stroke-width="1" fill="blue" tooltip="enable"><title>(2.37927,0)</title></rect><rect x="534" y="200" width="6" height="0" stroke="black" stroke-width="1" fill="blue" tooltip="enable"><title>(2.40631,0)</title></rect><rect x="540" y="200" width="6" height="0" stroke="black" stroke-width="1" fill="blue" tooltip="enable"><title>(2.43334,0)</title></rect><rect x="546" y="200" width="6" height="0" stroke="black" stroke-width="1" fill="blue" tooltip="enable"><title>(2.46038,0)</title></rect><rect x="552" y="200" width="6" height="0" stroke="black" stroke-width="1" fill="blue" tooltip="enable"><title>(2.48742,0)</title></rect><rect x="558" y="200" width="6" height="0" stroke="black" stroke-width="1" fill="blue" tooltip="enable"><title>(2.51445,0)</title></rect><rect x="564" y="199.916" width="6" height="0.084317" stroke="black" stroke-width="1" fill="blue" tooltip="enable"><title>(2.54149,1)</title></rect><rect x="570" y="200" width="6" height="0" stroke="black" stroke-width="1" fill="blue" tooltip="enable"><title>(2.56853,0)</title></rect><rect x="576" y="200" width="6" height="0" stroke="black" stroke-width="1" fill="blue" tooltip="enable"><title>(2.59557,0)</title></rect><rect x="582" y="200" width="6" height="0" stroke="black" stroke-width="1" fill="blue" tooltip="enable"><title>(2.6226,0)</title></rect><rect x="588" y="200" width="6" height="0" stroke="black" stroke-width="1" fill="blue" tooltip="enable"><title>(2.64964,0)</title></rect><rect x="594" y="200" width="6" height="0" stroke="black" stroke-width="1" fill="blue" tooltip="enable"><title>(2.67668,0)</title></rect><text x="30" y="240" font-size="20" fill="black">0</text>
<text x="600" y="240" font-size="20" fill="black">2.70371</text>
<polyline points="0,220,600,220" stroke="black" stroke-width="1" fill="none"/>
<text x="720" y="20" font-size="20" fill="black">2372</text>
<text x="720" y="200" font-size="20" fill="black">0</text>
<polyline points="660,0,660,200" stroke="black" stroke-width="1" fill="none"/>
</svg>