<?xml version="1.0" standalone="yes"?>
<!-- SVG graphic -->
<svg xmlns='http://www.w3.org/2000/svg' xmlns:xlink='http://www.w3.org/1999/xlink'
 version="1.1">
<rect x="0" y="0" width="6" height="200" stroke="black" stroke-width="1" fill="blue" tooltip="enable"><title>(0,2457)</title></rect><rect x="6" y="77.4929" width="6" height="122.507" stroke="black" stroke-width="1" fill="blue" tooltip="enable"><title>(0.0298372,1505)</title></rect><rect x="12" y="110.053" width="6" height="89.9471" stroke="black" stroke-width="1" fill="blue" tooltip="enable"><title>(0.0596744,1105)</title></rect><rect x="18" y="129.019" width="6" height="70.9809" stroke="black" stroke-width="1" fill="blue" tooltip="enable"><title>(0.0895116,872)</title></rect><rect x="24" y="141.962" width="6" height="58.0383" stroke="black" stroke-width="1" fill="blue" tooltip="enable"><title>(0.119349,713)</title></rect><rect x="30" y="157.102" width="6" height="42.8978" stroke="black" stroke-width="1" fill="blue" tooltip="enable"><title>(0.149186,527)</title></rect><rect x="36" y="163.777" width="6" height="36.223" stroke="black" stroke-width="1" fill="blue" tooltip="enable"><title>(0.179023,445)</title></rect><rect x="42" y="169.882" width="6" height="30.118" stroke="black" stroke-width="1" fill="blue" tooltip="enable"><title>(0.20886,370)</title></rect><rect x="48" y="173.871" width="6" height="26.1294" stroke="black" stroke-width="1" fill="blue" tooltip="enable"><title>(0.238697,321)</title></rect><rect x="54" y="179.243" width="6" height="20.757" stroke="black" stroke-width="1" fill="blue" tooltip="enable"><title>(0.268535,255)</title></rect><rect x="60" y="183.72" width="6" height="16.28" stroke="black" stroke-width="1" fill="blue" tooltip="enable"><title>(0.298372,200)</title></rect><rect x="66" y="187.546" width="6" height="12.4542" stroke="black" stroke-width="1" fill="blue" tooltip="enable"><title>(0.328209,153)</title></rect><rect x="72" y="190.069" width="6" height="9.93081" stroke="black" stroke-width="1" fill="blue" tooltip="enable"><title>(0.358046,122)</title></rect><rect x="78" y="190.069" width="6" height="9.93081" stroke="black" stroke-width="1" fill="blue" tooltip="enable"><title>(0.387883,122)</title></rect><rect x="84" y="191.209" width="6" height="8.79121" stroke="black" stroke-width="1" fill="blue" tooltip="enable"><title>(0.417721,108)</title></rect><rect x="90" y="194.709" width="6" height="5.29101" stroke="black" stroke-width="1" fill="blue" tooltip="enable"><title>(0.447558,65)</title></rect><rect x="96" y="194.221" width="6" height="5.77941" stroke="black" stroke-width="1" fill="blue" tooltip="enable"><title>(0.477395,71)</title></rect><rect x="102" y="193.569" width="6" height="6.43061" stroke="black" stroke-width="1" fill="blue" tooltip="enable"><title>(0.507232,79)</title></rect><rect x="108" y="194.628" width="6" height="5.37241" stroke="black" stroke-width="1" fill="blue" tooltip="enable"><title>(0.537069,66)</title></rect><rect x="114" y="196.093" width="6" height="3.9072" stroke="black" stroke-width="1" fill="blue" tooltip="enable"><title>(0.566907,48)</title></rect><rect x="120" y="196.744" width="6" height="3.256" stroke="black" stroke-width="1" fill="blue" tooltip="enable"><title>(0.596744,40)</title></rect><rect x="126" y="196.663" width="6" height="3.3374" stroke="black" stroke-width="1" fill="blue" tooltip="enable"><title>(0.626581,41)</title></rect><rect x="132" y="197.884" width="6" height="2.1164" stroke="black" stroke-width="1" fill="blue" tooltip="enable"><title>(0.656418,26)</title></rect><rect x="138" y="197.477" width="6" height="2.5234" stroke="black" stroke-width="1" fill="blue" tooltip="enable"><title>(0.686255,31)</title></rect><rect x="144" y="198.046" width="6" height="1.9536" stroke="black" stroke-width="1" fill="blue" tooltip="enable"><title>(0.716093,24)</title></rect><rect x="150" y="197.884" width="6" height="2.1164" stroke="black" stroke-width="1" fill="blue" tooltip="enable"><title>(0.74593,26)</title></rect><rect x="156" y="198.372" width="6" height="1.628" stroke="black" stroke-width="1" fill="blue" tooltip="enable"><title>(0.775767,20)</title></rect><rect x="162" y="197.802" width="6" height="2.1978" stroke="black" stroke-width="1" fill="blue" tooltip="enable"><title>(0.805604,27)</title></rect><rect x="168" y="199.105" width="6" height="0.895401" stroke="black" stroke-width="1" fill="blue" tooltip="enable"><title>(0.835441,11)</title></rect><rect x="174" y="198.86" width="6" height="1.1396" stroke="black" stroke-width="1" fill="blue" tooltip="enable"><title>(0.865278,14)</title></rect><rect x="180" y="199.267" width="6" height="0.732601" stroke="black" stroke-width="1" fill="blue" tooltip="enable"><title>(0.895116,9)</title></rect><rect x="186" y="199.105" width="6" height="0.895401" stroke="black" stroke-width="1" fill="blue" tooltip="enable"><title>(0.924953,11)</title></rect><rect x="192" y="198.942" width="6" height="1.0582" stroke="black" stroke-width="1" fill="blue" tooltip="enable"><title>(0.95479,13)</title></rect><rect x="198" y="199.186" width="6" height="0.814001" stroke="black" stroke-width="1" fill="blue" tooltip="enable"><title>(0.984627,10)</title></rect><rect x="204" y="199.349" width="6" height="0.651201" stroke="black" stroke-width="1" fill="blue" tooltip="enable"><title>(1.01446,8)</title></rect><rect x="210" y="199.756" width="6" height="0.2442" stroke="black" stroke-width="1" fill="blue" tooltip="enable"><title>(1.0443,3)</title></rect><rect x="216" y="199.674" width="6" height="0.3256" stroke="black" stroke-width="1" fill="blue" tooltip="enable"><title>(1.07414,4)</title></rect><rect x="222" y="199.267" width="6" height="0.732601" stroke="black" stroke-width="1" fill="blue" tooltip="enable"><title>(1.10398,9)</title></rect><rect x="228" y="199.674" width="6" height="0.3256" stroke="black" stroke-width="1" fill="blue" tooltip="enable"><title>(1.13381,4)</title></rect><rect x="234" y="199.267" width="6" height="0.732601" stroke="black" stroke-width="1" fill="blue" tooltip="enable"><title>(1.16365,9)</title></rect><rect x="240" y="199.919" width="6" height="0.0814001" stroke="black" stroke-width="1" fill="blue" tooltip="enable"><title>(1.19349,1)</title></rect><rect x="246" y="199.919" width="6" height="0.0814001" stroke="black" stroke-width="1" fill="blue" tooltip="enable"><title>(1.22332,1)</title></rect><rect x="252" y="199.674" width="6" height="0.3256" stroke="black" stroke-width="1" fill="blue" tooltip="enable"><title>(1.25316,4)</title></rect><rect x="258" y="199.919" width="6" height="0.0814001" stroke="black" stroke-width="1" fill="blue" tooltip="enable"><title>(1.283,1)</title></rect><rect x="264" y="199.837" width="6" height="0.1628" stroke="black" stroke-width="1" fill="blue" tooltip="enable"><title>(1.31284,2)</title></rect><rect x="270" y="199.756" width="6" height="0.2442" stroke="black" stroke-width="1" fill="blue" tooltip="enable"><title>(1.34267,3)</title></rect><rect x="276" y="199.349" width="6" height="0.651201" stroke="black" stroke-width="1" fill="blue" tooltip="enable"><title>(1.37251,8)</title></rect><rect x="282" y="199.837" width="6" height="0.1628" stroke="black" stroke-width="1" fill="blue" tooltip="enable"><title>(1.40235,2)</title></rect><rect x="288" y="199.674" width="6" height="0.3256" stroke="black" stroke-width="1" fill="blue" tooltip="enable"><title>(1.43219,4)</title></rect><rect x="294" y="199.674" width="6" height="0.3256" stroke="black" stroke-width="1" fill="blue" tooltip="enable"><title>(1.46202,4)</title></rect><rect x="300" y="200" width="6" height="0" stroke="black" stroke-width="1" fill="blue" tooltip="enable"><title>(1.49186,0)</title></rect><rect x="306" y="200" width="6" height="0" stroke="black" stroke-width="1" fill="blue" tooltip="enable"><title>(1.5217,0)</title></rect><rect x="312" y="199.837" width="6" height="0.1628" stroke="black" stroke-width="1" fill="blue" tooltip="enable"><title>(1.55153,2)</title></rect><rect x="318" y="199.837" width="6" height="0.1628" stroke="black" stroke-width="1" fill="blue" tooltip="enable"><title>(1.58137,2)</title></rect><rect x="324" y="199.919" width="6" height="0.0814001" stroke="black" stroke-width="1" fill="blue" tooltip="enable"><title>(1.61121,1)</title></rect><rect x="330" y="199.837" width="6" height="0.1628" stroke="black" stroke-width="1" fill="blue" tooltip="enable"><title>(1.64105,2)</title></rect><rect x="336" y="199.919" width="6" height="0.0814001" stroke="black" stroke-width="1" fill="blue" tooltip="enable"><title>(1.67088,1)</title></rect><rect x="342" y="199.837" width="6" height="0.1628" stroke="black" stroke-width="1" fill="blue" tooltip="enable"><title>(1.70072,2)</title></rect><rect x="348" y="200" width="6" height="0" stroke="black" stroke-width="1" fill="blue" tooltip="enable"><title>(1.73056,0)</title></rect><rect x="354" y="199.756" width="6" height="0.2442" stroke="black" stroke-width="1" fill="blue" tooltip="enable"><title>(1.76039,3)</title></rect><rect x="360" y="199.837" width="6" height="0.1628" stroke="black" stroke-width="1" fill="blue" tooltip="enable"><title>(1.79023,2)</title></rect><rect x="366" y="200" width="6" height="0" stroke="black" stroke-width="1" fill="blue" tooltip="enable"><title>(1.82007,0)</title></rect><rect x="372" y="199.919" width="6" height="0.0814001" stroke="black" stroke-width="1" fill="blue" tooltip="enable"><title>(1.84991,1)</title></rect><rect x="378" y="200" width="6" height="0" stroke="black" stroke-width="1" fill="blue" tooltip="enable"><title>(1.87974,0)</title></rect><rect x="384" y="199.919" width="6" height="0.0814001" stroke="black" stroke-width="1" fill="blue" tooltip="enable"><title>(1.90958,1)</title></rect><rect x="390" y="199.919" width="6" height="0.0814001" stroke="black" stroke-width="1" fill="blue" tooltip="enable"><title>(1.93942,1)</title></rect><rect x="396" y="200" width="6" height="0" stroke="black" stroke-width="1" fill="blue" tooltip="enable"><title>(1.96925,0)</title></rect><rect x="402" y="200" width="6" height="0" stroke="black" stroke-width="1" fill="blue" tooltip="enable"><title>(1.99909,0)</title></rect><rect x="408" y="199.919" width="6" height="0.0814001" stroke="black" stroke-width="1" fill="blue" tooltip="enable"><title>(2.02893,1)</title></rect><rect x="414" y="200" width="6" height="0" stroke="black" stroke-width="1" fill="blue" tooltip="enable"><title>(2.05877,0)</title></rect><rect x="420" y="199.919" width="6" height="0.0814001" stroke="black" stroke-width="1" fill="blue" tooltip="enable"><title>(2.0886,1)</title></rect><rect x="426" y="199.919" width="6" height="0.0814001" stroke="black" stroke-width="1" fill="blue" tooltip="enable"><title>(2.11844,1)</title></rect><rect x="432" y="199.919" width="6" height="0.0814001" stroke="black" stroke-width="1" fill="blue" tooltip="enable"><title>(2.14828,1)</title></rect><rect x="438" y="200" width="6" height="0" stroke="black" stroke-width="1" fill="blue" tooltip="enable"><title>(2.17811,0)</title></rect><rect x="444" y="199.919" width="6" height="0.0814001" stroke="black" stroke-width="1" fill="blue" tooltip="enable"><title>(2.20795,1)</title></rect><rect x="450" y="199.919" width="6" height="0.0814001" stroke="black" stroke-width="1" fill="blue" tooltip="enable"><title>(2.23779,1)</title></rect><rect x="456" y="200" width="6" height="0" stroke="black" stroke-width="1" fill="blue" tooltip="enable"><title>(2.26763,0)</title></rect><rect x="462" y="200" width="6" height="0" stroke="black" stroke-width="1" fill="blue" tooltip="enable"><title>(2.29746,0)</title></rect><rect x="468" y="199.919" width="6" height="0.0814001" stroke="black" stroke-width="1" fill="blue" tooltip="enable"><title>(2.3273,1)</title></rect><rect x="474" y="199.837" width="6" height="0.1628" stroke="black" stroke-width="1" fill="blue" tooltip="enable"><title>(2.35714,2)</title></rect><rect x="480" y="200" width="6" height="0" stroke="black" stroke-width="1" fill="blue" tooltip="enable"><title>(2.38698,0)</title></rect><rect x="486" y="199.919" width="6" height="0.0814001" stroke="black" stroke-width="1" fill="blue" tooltip="enable"><title>(2.41681,1)</title></rect><rect x="492" y="200" width="6" height="0" stroke="black" stroke-width="1" fill="blue" tooltip="enable"><title>(2.44665,0)</title></rect><rect x="498" y="200" width="6" height="0" stroke="black" stroke-width="1" fill="blue" tooltip="enable"><title>(2.47649,0)</title></rect><rect x="504" y="200" width="6" height="0" stroke="black" stroke-width="1" fill="blue" tooltip="enable"><title>(2.50632,0)</title></rect><rect x="510" y="200" width="6" height="0" stroke="black" stroke-width="1" fill="blue" tooltip="enable"><title>(2.53616,0)</title></rect><rect x="516" y="200" width="6" height="0" stroke="black" stroke-width="1" fill="blue" tooltip="enable"><title>(2.566,0)</title></rect><rect x="522" y="200" width="6" height="0" stroke="black" stroke-width="1" fill="blue" tooltip="enable"><title>(2.59584,0)</title></rect><rect x="528" y="199.919" width="6" height="0.0814001" stroke="black" stroke-width="1" fill="blue" tooltip="enable"><title>(2.62567,1)</title></rect><rect x="534" y="200" width="6" height="0" stroke="black" stroke-width="1" fill="blue" tooltip="enable"><title>(2.65551,0)</title></rect><rect x="540" y="199.919" width="6" height="0.0814001" stroke="black" stroke-width="1" fill="blue" tooltip="enable"><title>(2.68535,1)</title></rect><rect x="546" y="200" width="6" height="0" stroke="black" stroke-width="1" fill="blue" tooltip="enable"><title>(2.71518,0)</title></rect><rect x="552" y="199.919" width="6" height="0.0814001" stroke="black" stroke-width="1" fill="blue" tooltip="enable"><title>(2.74502,1)</title></rect><rect x="558" y="199.837" width="6" height="0.1628" stroke="black" stroke-width="1" fill="blue" tooltip="enable"><title>(2.77486,2)</title></rect><rect x="564" y="200" width="6" height="0" stroke="black" stroke-width="1" fill="blue" tooltip="enable"><title>(2.8047,0)</title></rect><rect x="570" y="200" width="6" height="0" stroke="black" stroke-width="1" fill="blue" tooltip="enable"><title>(2.83453,0)</title></rect><rect x="576" y="200" width="6" height="0" stroke="black" stroke-width="1" fill="blue" tooltip="enable"><title>(2.86437,0)</title></rect><rect x="582" y="200" width="6" height="0" stroke="black" stroke-width="1" fill="blue" tooltip="enable"><title>(2.89421,0)</title></rect><rect x="588" y="200" width="6" height="0" stroke="black" stroke-width="1" fill="blue" tooltip="enable"><title>(2.92404,0)</title></rect><rect x="594" y="200" width="6" height="0" stroke="black" stroke-width="1" fill="blue" tooltip="enable"><title>(2.95388,0)</title></rect><text x="30" y="240" font-size="20" fill="black">0</text>
<text x="600" y="240" font-size="20" fill="black">2.98372</text>
<polyline points="0,220,600,220" stroke="black" stroke-width="1" fill="none"/>
<text x="720" y="20" font-size="20" fill="black">2457</text>
<text x="720" y="200" font-size="20" fill="black">0</text>
<polyline points="660,0,660,200" stroke="black" stroke-width="1" fill="none"/>
</svg>